<mxfile host="app.diagrams.net" modified="2020-07-27T06:52:12.040Z" agent="5.0 (Windows NT 10.0; WOW64) AppleWebKit/537.36 (KHTML, like Gecko) Chrome/76.0.3809.87 Safari/537.36" etag="34xVlHh-QCbCc8jSCVoH" version="13.4.5" type="github">
  <diagram id="5BUjsGUQ6HlizO9jj8Fy" name="第 1 页">
    <mxGraphModel dx="1422" dy="762" grid="1" gridSize="10" guides="1" tooltips="1" connect="1" arrows="1" fold="1" page="1" pageScale="1" pageWidth="3300" pageHeight="4681" math="0" shadow="0">
      <root>
        <mxCell id="0" />
        <mxCell id="1" parent="0" />
        <mxCell id="2" value="BIOS 启动流程" style="whiteSpace=wrap;html=1;" vertex="1" parent="1">
          <mxGeometry x="400" y="90" width="120" height="60" as="geometry" />
        </mxCell>
        <mxCell id="ZSsQjz16OIjeC5_ZzvAY-4" value="" style="edgeStyle=orthogonalEdgeStyle;rounded=0;orthogonalLoop=1;jettySize=auto;html=1;" edge="1" parent="1" source="ZSsQjz16OIjeC5_ZzvAY-2" target="ZSsQjz16OIjeC5_ZzvAY-3">
          <mxGeometry relative="1" as="geometry" />
        </mxCell>
        <mxCell id="ZSsQjz16OIjeC5_ZzvAY-2" value="外部设备的信息 存储在一个不易丢失的RAM 的闪存中" style="ellipse;whiteSpace=wrap;html=1;" vertex="1" parent="1">
          <mxGeometry x="300" y="180" width="340" height="150" as="geometry" />
        </mxCell>
        <mxCell id="ZSsQjz16OIjeC5_ZzvAY-8" value="" style="edgeStyle=orthogonalEdgeStyle;rounded=0;orthogonalLoop=1;jettySize=auto;html=1;" edge="1" parent="1" source="ZSsQjz16OIjeC5_ZzvAY-3" target="ZSsQjz16OIjeC5_ZzvAY-7">
          <mxGeometry relative="1" as="geometry" />
        </mxCell>
        <mxCell id="ZSsQjz16OIjeC5_ZzvAY-3" value="判断设备是否可以相应，例如：键盘，屏幕。&lt;br&gt;从总线回查，当前设备连接是否和之前的记录设备数量&lt;br&gt;相同，不同则进行更新" style="whiteSpace=wrap;html=1;" vertex="1" parent="1">
          <mxGeometry x="295" y="360" width="350" height="80" as="geometry" />
        </mxCell>
        <mxCell id="ZSsQjz16OIjeC5_ZzvAY-7" value="CMOS 存储器&lt;br&gt;决定启动设备" style="ellipse;whiteSpace=wrap;html=1;" vertex="1" parent="1">
          <mxGeometry x="870" y="350" width="120" height="80" as="geometry" />
        </mxCell>
      </root>
    </mxGraphModel>
  </diagram>
</mxfile>
